<svg xmlns="http://www.w3.org/2000/svg" viewBox="0 0 680 120"><defs><style>.cls-1{fill:#162b50;}.cls-2{fill:#04428f;}.cls-3{fill:none;}</style></defs><title>자산 1</title><g id="레이어_2" data-name="레이어 2"><g id="레이어_1-2" data-name="레이어 1"><polygon class="cls-1" points="147.31 108.97 136.44 92.48 117.18 92.48 93.76 58.62 101.9 46.86 118.82 46.86 131.99 30.57 113.16 30.57 115.3 27.48 133.14 27.48 147.14 11 109.31 11 97.91 27.48 97.91 27.48 85.06 46.05 72.21 27.48 91.85 27.48 95.39 27.48 106.83 11 25.68 11 36.57 27.48 54.82 27.48 76.37 58.62 52.94 92.48 35.96 92.48 25.72 108.97 58.67 108.97 58.74 108.85 58.9 109 85.06 71.19 111.22 109 111.37 108.86 111.44 108.97 147.31 108.97"/><path class="cls-2" d="M201.66,63.48H184.39V80.62h-8.27V39.38h28.43v6.37H184.39V57.11h17.28Z"/><path class="cls-2" d="M216.7,64.14V80.62h-8.27V39.38H224q7.05,0,11,3.21a10.88,10.88,0,0,1,4,9,9.08,9.08,0,0,1-1.67,5.49,11.68,11.68,0,0,1-4.9,3.71,8.87,8.87,0,0,1,5.25,3.6,11.41,11.41,0,0,1,1.6,6.23v3a15,15,0,0,0,.47,3.61,5,5,0,0,0,1.6,2.79v.59h-8.52a4.66,4.66,0,0,1-1.47-3,25.5,25.5,0,0,1-.34-4V70.65a6.56,6.56,0,0,0-1.69-4.8,6.36,6.36,0,0,0-4.74-1.71Zm0-6.37h7.14a7.81,7.81,0,0,0,5.2-1.47,5.44,5.44,0,0,0,1.71-4.36,6,6,0,0,0-1.71-4.5A7,7,0,0,0,224,45.75H216.7Z"/><path class="cls-2" d="M271,62.49H253.89V74.25h20v6.37H245.62V39.38H273.8v6.37H253.89V56.12H271Z"/><path class="cls-2" d="M311.09,80.62h-8.24L286.2,52.44l-.17,0V80.62h-8.27V39.38H286l16.65,28.15.17,0V39.38h8.24Z"/><path class="cls-2" d="M346.16,45.75H334.49V80.62h-8.27V45.75H314.61V39.38h31.55Z"/><path class="cls-2" d="M375,62.49H357.88V74.25h20v6.37H349.61V39.38h28.18v6.37H357.88V56.12H375Z"/><path class="cls-2" d="M423.53,45.75H411.86V80.62h-8.27V45.75H392V39.38h31.55Z"/><path class="cls-2" d="M435.26,64.14V80.62H427V39.38h15.55q7.05,0,11,3.21a10.88,10.88,0,0,1,4,9,9.07,9.07,0,0,1-1.67,5.49,11.68,11.68,0,0,1-4.9,3.71,8.87,8.87,0,0,1,5.25,3.6,11.4,11.4,0,0,1,1.6,6.23v3a14.94,14.94,0,0,0,.47,3.61,5,5,0,0,0,1.6,2.79v.59h-8.52a4.66,4.66,0,0,1-1.47-3,25.5,25.5,0,0,1-.34-4V70.65a6.56,6.56,0,0,0-1.68-4.8,6.36,6.36,0,0,0-4.74-1.71Zm0-6.37h7.14a7.81,7.81,0,0,0,5.2-1.47,5.44,5.44,0,0,0,1.71-4.36,6,6,0,0,0-1.71-4.5,7,7,0,0,0-5.06-1.67h-7.28Z"/><path class="cls-2" d="M473,80.62h-8.27V39.38H473Z"/><path class="cls-2" d="M511.16,66.57l.06.17q.11,6.65-4.06,10.56t-11.6,3.91a16.1,16.1,0,0,1-12.09-4.79,17,17,0,0,1-4.64-12.32V55.92a17.26,17.26,0,0,1,4.53-12.32,15.44,15.44,0,0,1,11.78-4.81q7.65,0,12,3.92t4.19,10.69l-.06.17h-8a9,9,0,0,0-2-6.24q-2-2.17-6.09-2.17a6.9,6.9,0,0,0-5.89,3,12.77,12.77,0,0,0-2.18,7.68v8.23a12.42,12.42,0,0,0,2.29,7.74,7.38,7.38,0,0,0,6.2,3q3.88,0,5.73-2.08t1.86-6.19Z"/><path class="cls-2" d="M549.11,63.71a17.3,17.3,0,0,1-4.8,12.55,16.6,16.6,0,0,1-12.48,5,16.38,16.38,0,0,1-12.38-5,17.38,17.38,0,0,1-4.76-12.55V56.29a17.42,17.42,0,0,1,4.74-12.53,16.31,16.31,0,0,1,12.36-5,16.61,16.61,0,0,1,12.49,5,17.28,17.28,0,0,1,4.81,12.53Zm-8.27-7.46a12.51,12.51,0,0,0-2.41-7.92,7.93,7.93,0,0,0-6.63-3.09,7.72,7.72,0,0,0-6.54,3.08,12.82,12.82,0,0,0-2.32,7.93v7.49a12.86,12.86,0,0,0,2.35,8,7.75,7.75,0,0,0,6.54,3.09,7.89,7.89,0,0,0,6.63-3.09,12.76,12.76,0,0,0,2.38-8Z"/><path class="cls-2" d="M562.67,74.25H581v6.37H554.4V39.38h8.27Z"/><path class="cls-2" d="M616.12,63.71a17.3,17.3,0,0,1-4.8,12.55,16.6,16.6,0,0,1-12.48,5,16.38,16.38,0,0,1-12.38-5,17.38,17.38,0,0,1-4.76-12.55V56.29a17.42,17.42,0,0,1,4.74-12.53,16.31,16.31,0,0,1,12.36-5,16.61,16.61,0,0,1,12.49,5,17.28,17.28,0,0,1,4.81,12.53Zm-8.27-7.46a12.51,12.51,0,0,0-2.41-7.92,7.93,7.93,0,0,0-6.63-3.09,7.72,7.72,0,0,0-6.54,3.08,12.82,12.82,0,0,0-2.32,7.93v7.49a12.86,12.86,0,0,0,2.35,8,7.75,7.75,0,0,0,6.54,3.09,7.89,7.89,0,0,0,6.63-3.09,12.76,12.76,0,0,0,2.38-8Z"/><path class="cls-2" d="M629.68,64.14V80.62h-8.27V39.38H637q7.05,0,11,3.21a10.88,10.88,0,0,1,4,9,9.07,9.07,0,0,1-1.67,5.49,11.68,11.68,0,0,1-4.9,3.71,8.87,8.87,0,0,1,5.25,3.6,11.4,11.4,0,0,1,1.6,6.23v3a14.94,14.94,0,0,0,.47,3.61,5,5,0,0,0,1.6,2.79v.59H645.8a4.66,4.66,0,0,1-1.47-3,25.5,25.5,0,0,1-.34-4V70.65a6.56,6.56,0,0,0-1.68-4.8,6.36,6.36,0,0,0-4.74-1.71Zm0-6.37h7.14a7.81,7.81,0,0,0,5.2-1.47,5.44,5.44,0,0,0,1.71-4.36,6,6,0,0,0-1.71-4.5A7,7,0,0,0,637,45.75h-7.28Z"/><rect class="cls-3" width="680" height="120"/></g></g></svg>