<?xml version="1.0" encoding="utf-8"?>
<!-- Generator: Adobe Illustrator 25.0.1, SVG Export Plug-In . SVG Version: 6.00 Build 0)  -->
<svg version="1.1" id="Capa_1" xmlns="http://www.w3.org/2000/svg" xmlns:xlink="http://www.w3.org/1999/xlink" x="0px" y="0px"
	 viewBox="0 0 450 512" style="enable-background:new 0 0 450 512;" xml:space="preserve">
<style type="text/css">
	.st0{fill:#FFFFFF;}
</style>
<g>
	<path class="st0" d="M225,0c-66.2,0-120,53.8-120,120s53.8,120,120,120s120-53.8,120-120S291.2,0,225,0z M225,210
		c-49.6,0-90-40.4-90-90s40.4-90,90-90s90,40.4,90,90S274.6,210,225,210z"/>
	<path class="st0" d="M450,497c0-124.2-100.5-227-225-227C100.4,270,0,372.9,0,497c0,8.3,6.7,15,15,15h420
		C443.3,512,450,505.3,450,497z M30.6,482c7.6-101.6,91.9-182,194.4-182s186.8,80.4,194.4,182H30.6z"/>
</g>
</svg>
